<?xml version="1.0" encoding="utf-8"?>
<!-- Generator: Adobe Illustrator 18.1.1, SVG Export Plug-In . SVG Version: 6.00 Build 0)  -->
<svg version="1.1" id="Layer_1" xmlns="http://www.w3.org/2000/svg" xmlns:xlink="http://www.w3.org/1999/xlink" x="0px" y="0px"
	 viewBox="0 0 340 40" enable-background="new 0 0 340 40" xml:space="preserve">
<g>
	<g>
		<g>
			<path fill="#0096FA" d="M22.1,24.9v-4h15.2c0,0.2,0,0.4,0,0.5c0,6.4-5.6,11.8-12.3,11.8c-6.9,0-12.5-5.4-12.5-12.1
				C12.5,14.4,18.1,9,24.9,9c4.9,0,9.8,3.1,11.2,7.3H31c-1.4-2.1-3.7-3.3-6.2-3.3c-4.5,0-8,3.6-8,8.1c0,4.5,3.6,8,8.2,8
				c3,0,5.6-1.6,6.9-4.3H22.1z"/>
			<path fill="#0096FA" d="M50.8,24.9v-4H66c0,0.2,0,0.4,0,0.5c0,6.4-5.6,11.8-12.3,11.8c-6.9,0-12.5-5.4-12.5-12.1
				C41.2,14.4,46.8,9,53.6,9c4.9,0,9.8,3.1,11.2,7.3h-5.1C58.3,14.2,56,13,53.5,13c-4.5,0-8,3.6-8,8.1c0,4.5,3.6,8,8.2,8
				c3,0,5.6-1.6,6.9-4.3H50.8z"/>
		</g>
	</g>
	<g>
		<path fill="#505050" d="M93.6,31h-2.7V12.2h2.7V31z"/>
		<path fill="#505050" d="M121.3,31h-2.8l-9.3-14.5V31h-2.7V12.2h3l9.2,14.3V12.2h2.8V31z"/>
		<path fill="#505050" d="M138.8,31h-2.8V14.8h-3.6v-2.5h9.9v2.5h-3.6V31z"/>
		<path fill="#505050" d="M163.7,31h-10.1V12.2h10.1v2.5h-7.4v5.5h7.4v2.5h-7.4v5.7h7.4V31z"/>
		<path fill="#505050" d="M188.2,31h-3.4l-6.2-8.7V31h-2.7V12.2h5.8c2.3,0,3.9,0.5,5,1.6c1.1,1,1.7,2.7,1.7,4.4
			c0,2.1-0.9,3.8-2.4,4.8c-0.9,0.6-1.5,0.8-3,1L188.2,31z M178.5,21.9h1.9c3.4,0,5.2-1.3,5.2-3.7c0-2.1-1.7-3.5-4.2-3.5h-2.9V21.9z"
			/>
		<path fill="#505050" d="M215.4,31h-2.9l-2.1-5.5h-6.8l-2.1,5.5h-2.9l7.1-18.8h2.5L215.4,31z M209.5,23l-2.4-7.1l-2.4,7.1H209.5z"
			/>
		<path fill="#505050" d="M242.8,26.4c-1.8,3.1-4.9,5-8.5,5c-5.3,0-9.6-4.4-9.6-9.8c0-5.4,4.3-9.7,9.6-9.7c3.7,0,6.7,1.8,8.6,5.1
			h-3.3c-1.5-1.8-3.2-2.6-5.3-2.6c-3.9,0-6.9,3.2-6.9,7.2c0,3.9,3.1,7.3,6.9,7.3c2,0,3.7-0.8,5.1-2.5H242.8z"/>
		<path fill="#505050" d="M259.3,31h-2.8V14.8h-3.6v-2.5h9.9v2.5h-3.6V31z"/>
		<path fill="#505050" d="M276.8,31H274V12.2h2.7V31z"/>
		<path fill="#505050" d="M296.7,31h-1.7l-7.6-18.8h3l5.5,14.1l5.4-14.1h2.9L296.7,31z"/>
		<path fill="#505050" d="M325.1,31H315V12.2h10.1v2.5h-7.4v5.5h7.4v2.5h-7.4v5.7h7.4V31z"/>
	</g>
	<rect x="76" fill="#DCDCDC" width="2" height="40"/>
</g>
</svg>
